<svg xmlns="http://www.w3.org/2000/svg" viewBox="0 0 633.08 828.5">
  <g id="drawing">
    <path id="base" data-step="1" d="M0 816.5h284v12H0z"/>
    <path id="stand" data-step="1" transform="rotate(-90 180.75 486.75)" d="M-149.5 442.5h817v12h-817z"/>
    <path id="bar" data-step="1" d="M148.5 0h391v12h-391z"/>
    <path id="support" data-step="1" transform="rotate(-45 210.134 224.7)" d="M232.23 97.89H401.1v12.36H232.23z"/>
    <path id="line" data-step="1" transform="rotate(-90 571.75 137.25)" d="M603 93h94v12h-94z"/>
    <g id="head" class="body hidden" data-step="2">
        <circle cx="533" cy="196.5" r="92.5" fill="none" stroke="#000" stroke-miterlimit="10" stroke-width="16"/>
    </g>
    <g id="body" class="body hidden" data-step="3">
        <path transform="rotate(-90 570.75 497.75)" d="M518.5 455.5h261v8h-261z"/>
    </g>
    <g id="arm_right" class="body hidden" data-step="4">
        <path transform="rotate(-135 622.842 421.927)" d="M635.05 413.85H743.7v7.89H635.05z"/>
    </g>
    <g id="arm_left" class="body hidden" data-step="5">
        <path transform="rotate(-45 505.846 538.432)" d="M558.05 413.85H666.7v7.89H558.05z"/>
    </g>
    <g id="leg_right" class="body hidden" data-step="6">
        <path transform="rotate(-135 631.84 638.924)" d="M629.91 630.85h136.93v7.89H629.91z"/>
    </g>
    <g id="leg_left" class="body hidden" data-step="7">
        <path transform="rotate(-45 494.836 755.422)" d="M532.91 630.85h136.93v7.89H532.91z"/>
    </g>
  </g>
  <g id="faces">
    <g id="face_hope" data-step="2">
        <path d="M616.23 226c2.62-.19 3-3.27 1.38-4.94-2.12-2.16-4.94.06-5.62 2.37-.75 2.57-.16 6.05 2.65 7a5.52 5.52 0 0 0 6.45-2.53 5.74 5.74 0 0 0-1.64-7.15 5 5 0 0 0-7 1.49 4.36 4.36 0 0 0 2.38 6.27 4.29 4.29 0 0 0 5.76-3.43 3.62 3.62 0 0 0-5.79-3.1 2.38 2.38 0 0 0-.29 3.9 4.7 4.7 0 0 0 4.62 1.28 1.46 1.46 0 0 0 1-1.05c.57-3.2-3.68-5.92-6-3.18s1.13 7.13 4.24 5.35c2.54-1.46 2-6.32-1.35-6.15-3 .15-3.81 5.23-.66 5.86 1.89.37 2.69-2.52.8-2.9-.21 0 .35.29.16.22s.46-.6-.19-.2c-.2.13 0-.08-.14.11s0 .46-.13.47-.6-.66-.44-.83.87.23.83.46l1.05-1.05a1.64 1.64 0 0 1-2-1.08v1.51c.37-.66 1.55-.56 1.23.35s-1.69.86-2.3.25c-1.65-1.63 2.26-3.73 3.28-1a2.5 2.5 0 0 1-.65 2.85c-.68.53-2 .86-2.69.18s-.61-2.67-.15-3.56c.11-.22.67-.72.45-.63 0 0 .3.36.13.32a1 1 0 0 1 .61-.52c-1.91.14-1.93 3.14 0 3zM690.5 221.68c-2.64.93-5.62 3-4.92 6.22.53 2.45 3.43 4.34 5.61 2.44a4 4 0 0 0-.32-6.06 4.49 4.49 0 0 0-3.59-.59c-1.17.28-2.89 1.18-3.25 2.43s.53 2.95 1.33 3.84a4.21 4.21 0 0 0 3.84 1.44 4.63 4.63 0 0 0 3.36-4.86 3.84 3.84 0 0 0-4.81-3.52c-2.26.6-4.15 3.08-3.6 5.46 1.28 5.49 10.49 3.3 9.1-2.31a4.88 4.88 0 0 0-6.15-3.62 5 5 0 0 0-3.05 6.29 3 3 0 0 0 5.7-.49c.64-2.88-3-4.62-5.21-3.15s-2 5.22.25 6.63a4.77 4.77 0 0 0 6.29-1.21c1.78-2.62-.16-6.31-3.14-6.87s-5.4 2.4-5.05 5.23c.37 3 4.25 5 6.64 2.74a3.28 3.28 0 0 0-2.91-5.54c-1.88.39-1.09 3.29.8 2.89 0 0 .14.34 0 .49s-1 0-1.19-.19a1.56 1.56 0 0 1-.16-1.88c1-1.87 3.56.21 2.45 1.55-1.25 1.51-3.58-.67-2.23-1.39a.62.62 0 0 1 .48.08c.12-.13.08-.11-.11.08.2-.24.05-.57.12-.91a2 2 0 0 1 1.76-1.61c1.79 0 2.56 2.67.74 3.29-1.27.43-2.91-.42-1.89-1.85.76-1.08 2.49-1.12 2.12.54-.46 2.06-2.39.87-2.54-.75l-.44 1.06c.53-.61 1.64-1.45 2.51-.91.32.2.68 1.13.2 1.39-.69.38-.79-1.24-.65-1.58.4-1 1.74-1.57 2.7-1.91 1.81-.64 1-3.54-.8-2.89zM615.53 278.05c12.82 8 28.11 8.11 42.74 7.48 13.45-.58 28-1.52 38.26-11.22 1.41-1.32-.71-3.44-2.12-2.12-10.07 9.47-24.7 9.89-37.76 10.41-13.59.53-27.72.31-39.6-7.14-1.64-1-3.15 1.57-1.52 2.59zM605 157.14c-4.17 6.74-10.24 14.2-10.31 22.5-.05 5.55 3.75 11.85 9.68 12.56 5.6.67 9.65-4.22 10.44-9.34 1.3-8.52-5.6-17.12-9.56-24a1.5 1.5 0 0 0-2.59 1.51c2.65 4.63 5.69 9.19 7.76 14.11a14.28 14.28 0 0 1 1.34 8.19c-.81 4.2-4.37 8.22-9.16 5.9-6.6-3.2-5.24-11.72-2.69-17 2.15-4.48 5.07-8.65 7.68-12.87 1-1.65-1.58-3.15-2.59-1.51z" transform="translate(-116.5 -40)"/>
    </g>
    <g id="face_scared" data-step="5">
        <path d="M616 223.64c3-2.39-1.5-7.29-4.21-4a3.42 3.42 0 0 0 .12 4.53 4.06 4.06 0 0 0 5 .41 1.52 1.52 0 0 0-.36-2.74 3.93 3.93 0 0 0-5.06 2.76 1.51 1.51 0 0 0 .39 1.46 4.75 4.75 0 0 0 3.28 1.26 1.56 1.56 0 0 0 1.45-1.1 8.81 8.81 0 0 0-1.77-8.56 1.52 1.52 0 0 0-2.12 0c-3.41 2.86-1 8.73 3.15 9.05a1.49 1.49 0 0 0 1.3-.75 5 5 0 0 0-4-7.21 1.53 1.53 0 0 0-1.45 1.1c-1.45 3.71 3.12 8.08 6.69 5.93 3.1-1.86 1.93-7.15-1.4-8-4.28-1.16-6.4 5-3.55 7.62 3.3 3.08 8.68.08 8.44-4.2a4.42 4.42 0 0 0-8.36-1.93c-1.91 4 4.4 7.65 6.63 3.75a4 4 0 0 0-1.11-5.08 4.31 4.31 0 0 0-5.69.81c-2.89 3.24.92 8.65 4.94 7.27s3-8.31-1.33-8.32-5.1 6.74-1.13 8c1.85.57 2.64-2.32.8-2.89-.68-.22-.47-1.7.06-2 .9-.48 1.27 1.18 1.11 1.77-.4 1.4-2.1.31-2.4-.62-.55-1.63 2.27-2.46 2.23-.83 0 1.19-2 .17-1.25-.78 1.15-1.4 2.71.17 2.49 1.55s-2.31 2.45-3.43 1.28c-.62-.64-.46-2.66.75-2.49.9.13 1.41 2 .68 2.56-1.34 1-2.71-1.44-2.28-2.54l-1.44 1.1a2 2 0 0 1 1.45 2.7l1.29-.74c-1.82-.14-2.26-2.89-1-3.93h-2.12a5.74 5.74 0 0 1 1 5.64l1.44-1.1a1.53 1.53 0 0 1-1.16-.38l.38 1.45a.93.93 0 0 1 1.37-.65l-.36-2.75c-.57.35-1 .34-1.35-.12-.09-.11.18-.56-.11-.32-1.52 1.2.62 3.31 2.12 2.12zM680.5 222.8a3.86 3.86 0 0 0 2.75 4.59 3.81 3.81 0 0 0 4.42-3 1.53 1.53 0 0 0-.69-1.7c-2.49-1.11-6-2.08-8.15.23-1.49 1.58-1.66 4.58.12 6 2.21 1.78 5.26 0 5.85-2.5a4.41 4.41 0 0 0-3.37-5.41 4.63 4.63 0 0 0-5.15 3.95 4.45 4.45 0 0 0 4.36 4.65c5.88.26 5.18-9.52-.31-8.21-2.3.54-4.08 3.27-2.85 5.51 1.1 2 4 2.2 5.69.81 2.1-1.76 1-4.34-1.31-5.21a5 5 0 0 0-6.13 2.17 5.38 5.38 0 0 0 1.83 6.57 5.51 5.51 0 0 0 7.08-1 5.61 5.61 0 0 0 .28-7.3 4.68 4.68 0 0 0-6.65-1c-2.07 1.63-2.81 5.13-.45 6.88a4.43 4.43 0 0 0 6.18-1.43c1.53-2.78-1.65-5.06-4.27-4.39-3.09.8-3.66 4.49-1.78 6.72 1.25 1.48 3.36-.66 2.12-2.12-1.07-1.27.8-2.28 1.78-1l-.44-1.06c.07 1.49-3.11 1.3-1.81-.74s3.82.2 3.5 2.09c-.41 2.4-4 3.2-4.78.62a1.69 1.69 0 0 1 .79-2.14 2.13 2.13 0 0 1 1.17-.15c.38.05.94.46 1 .33 0 .08-1.39.43-1.18-.49a.86.86 0 0 1 1.68 0c.75 2.24-3.15 1.93-2.46-.06a1.36 1.36 0 0 1 2.32-.47c.3.45.25 2.74-.88 2.12-.56-.31.11-1.55.41-1.79 1.09-.88 3.21 0 4.25.47l-.69-1.69c-.2.95-1.57 1.15-1.39 0 .3-1.89-2.59-2.71-2.89-.8zM612.58 277.8c12.91-1.16 25.25-7.39 37.86-10.34a209 209 0 0 1 42.26-5.36c1.93-.05 1.94-3.05 0-3a214.83 214.83 0 0 0-39.4 4.64q-10.08 2.16-19.89 5.33c-6.88 2.22-13.56 5.08-20.83 5.73-1.91.17-1.92 3.18 0 3z" transform="translate(-116.5 -40)"/>
    </g>
    <g id="face_dead" data-step="7">
        <path d="M645.54 197.91q-13.23 15.83-25 32.79c-1.1 1.59 1.5 3.09 2.59 1.51q11.54-16.64 24.51-32.18c1.23-1.47-.88-3.6-2.12-2.12z" transform="translate(-116.5 -40)"/>
        <path d="M618.54 203.53c5.81 1.08 9 5.93 12.13 10.52 3.47 5.16 6.91 10.34 10.37 15.5 1.07 1.6 3.67.1 2.59-1.51-4.29-6.41-8.35-13.06-13-19.24-2.93-3.93-6.35-7.24-11.32-8.16-1.89-.35-2.7 2.54-.8 2.89zM701.79 192.07l-15.3 32.38c-.82 1.74 1.77 3.26 2.59 1.52l15.3-32.39c.82-1.74-1.76-3.26-2.59-1.51z" transform="translate(-116.5 -40)"/>
        <path d="M679 199.45a111.2 111.2 0 0 1 29.56 35c.92 1.7 3.51.19 2.59-1.51a113.23 113.23 0 0 0-30-35.58c-1.5-1.17-3.64.94-2.12 2.13zM615.64 293.1c4.09-7.82 10.14-14.05 16.59-20s13.37-12.18 22-14.32c20.29-5 33.91 14.65 37.06 32 .34 1.89 3.23 1.09 2.89-.8-3.26-18-16.64-37.17-37.23-34.78-9 1-16.58 6.68-23.21 12.48-8 6.95-15.75 14.36-20.69 23.82-.89 1.71 1.7 3.23 2.59 1.52z" transform="translate(-116.5 -40)"/>
        <path d="M622.3 279.66c.5 5.36 3.58 15.34 11.23 11.75 3.18-1.5 3.5-5.49 3.54-8.58a29.25 29.25 0 0 0-3.24-13.48c-.85-1.74-3.44-.22-2.59 1.51 2 4.13 4.1 10.55 2.57 15.18-1 3.1-4 3.48-6.13 1.28-1.93-2-2.13-5.06-2.38-7.66-.18-1.91-3.18-1.93-3 0z" transform="translate(-116.5 -40)"/>
        <path d="M625.82 276.73l4.63 10c.81 1.75 3.4.22 2.59-1.52l-4.62-10c-.82-1.75-3.4-.23-2.6 1.51z" transform="translate(-116.5 -40)"/>
    </g>
  </g>
</svg>
